<svg width="97" height="118" viewBox="0 0 97 118" fill="none" xmlns="http://www.w3.org/2000/svg">
<path d="M46.6113 4.02998C45.9722 18.9416 37.0614 27.0252 37.0614 27.0252C52.8222 36.4831 52.7862 61.4824 52.5226 67.6926C52.5081 68.0712 52.3459 68.4294 52.0702 68.6917C51.7945 68.954 51.4268 69.0999 51.0448 69.0986H35.3439C34.9661 69.0982 34.6028 68.9542 34.3287 68.6964C34.0546 68.4386 33.8905 68.0865 33.8701 67.7124C32.6518 45.0578 28.1145 38.0079 25.5263 35.8177C25.3575 35.6795 25.1536 35.5898 24.9369 35.5583C24.7202 35.5269 24.4989 35.555 24.2972 35.6395C24.0955 35.724 23.9209 35.8617 23.7926 36.0377C23.6643 36.2137 23.587 36.4211 23.5692 36.6376L22.4389 54.282C22.4161 54.629 22.2699 54.9567 22.0264 55.2069C21.7828 55.4571 21.4577 55.6136 21.1088 55.6485L5.13236 57.2327C4.93438 57.2522 4.73446 57.2319 4.54458 57.173C4.35471 57.1141 4.17878 57.0178 4.02736 56.8898C3.87593 56.7619 3.75212 56.6049 3.66335 56.4283C3.57458 56.2518 3.52267 56.0593 3.51075 55.8623L0.798742 11.7373C0.777318 11.3952 0.877473 11.0566 1.0818 10.7801C1.28612 10.5037 1.58168 10.3071 1.91709 10.2244L16.9749 6.52516C17.1692 6.47805 17.3711 6.47042 17.5685 6.50275C17.7658 6.53508 17.9545 6.6067 18.1232 6.71327C18.2919 6.81985 18.4371 6.95919 18.55 7.1229C18.6629 7.2866 18.7412 7.47128 18.7803 7.66581L21.0649 19.1515C21.1173 19.3825 21.2382 19.5927 21.4119 19.7552C21.5857 19.9176 21.8044 20.0248 22.04 20.0631C22.2757 20.1015 22.5175 20.0691 22.7345 19.9702C22.9514 19.8712 23.1336 19.7103 23.2577 19.508L31.9649 4.49337C32.0813 4.29242 32.2441 4.12165 32.4399 3.99499C32.6356 3.86834 32.8588 3.7894 33.0912 3.76462L44.9737 2.51308C45.1851 2.49077 45.3988 2.51381 45.6004 2.58065C45.802 2.64749 45.9868 2.75655 46.1421 2.90044C46.2974 3.04433 46.4197 3.21967 46.5007 3.41457C46.5816 3.60947 46.6194 3.81935 46.6113 4.02998V4.02998Z" fill="#F7434E"/>
<path d="M57.727 72.7107H68.6788C69.0543 72.71 69.4159 72.8514 69.6898 73.1061C69.9637 73.3607 70.1293 73.7095 70.1527 74.0811L70.6479 81.6577C70.6766 81.9129 70.7878 82.1521 70.9649 82.3393C71.1421 82.5266 71.3757 82.6519 71.6307 82.6965C71.8857 82.7411 72.1485 82.7026 72.3796 82.5867C72.6107 82.4709 72.7977 82.2839 72.9126 82.0537L76.8029 73.5543C76.9207 73.2983 77.1101 73.0812 77.3488 72.9288C77.5874 72.7765 77.8651 72.6953 78.1489 72.6949H94.9002C95.1175 72.6948 95.3322 72.7421 95.529 72.8335C95.7258 72.9249 95.8999 73.058 96.039 73.2236C96.1781 73.3891 96.2788 73.5829 96.3339 73.7914C96.3891 73.9998 96.3973 74.2177 96.3581 74.4296C94.7884 83.2182 87.7827 89.0204 84.847 91.1037C84.7026 91.2096 84.5841 91.3463 84.5001 91.5038C84.4162 91.6612 84.3691 91.8354 84.3622 92.0134C84.3552 92.1913 84.3888 92.3686 84.4603 92.5319C84.5317 92.6953 84.6394 92.8407 84.7751 92.9573C94.2572 101.065 95.6232 112.202 95.7989 116.226C95.807 116.423 95.7747 116.62 95.7041 116.805C95.6335 116.99 95.5259 117.158 95.3878 117.301C95.2498 117.443 95.0841 117.556 94.9008 117.634C94.7175 117.711 94.5203 117.751 94.3211 117.751H81.5958C81.2097 117.749 80.8396 117.597 80.5643 117.329C80.289 117.06 80.1303 116.696 80.122 116.313C79.7905 103.564 75.0934 99.8131 72.5531 98.712C72.3755 98.6402 72.183 98.6116 71.992 98.6289C71.8009 98.6461 71.6168 98.7086 71.4552 98.811C71.2935 98.9135 71.1591 99.053 71.0631 99.2177C70.9671 99.3824 70.9124 99.5676 70.9036 99.7576L70.3364 116.333C70.323 116.713 70.1615 117.073 69.8859 117.337C69.6103 117.602 69.2421 117.75 68.8586 117.751H49.4352C49.16 117.752 48.8898 117.678 48.6549 117.535C48.42 117.393 48.2297 117.189 48.1053 116.945C47.9809 116.702 47.9274 116.429 47.9506 116.157C47.9738 115.885 48.073 115.625 48.2369 115.406C51.8117 110.622 58.6216 98.1219 56.2451 74.3029C56.2267 74.0996 56.2514 73.8947 56.3177 73.7015C56.384 73.5082 56.4904 73.3309 56.63 73.1809C56.7696 73.0309 56.9393 72.9116 57.1282 72.8306C57.3172 72.7496 57.5211 72.7088 57.727 72.7107V72.7107Z" fill="#F7434E"/>
<path d="M4.82877 60.8725L20.6375 59.308C20.8503 59.2864 21.0654 59.3109 21.2677 59.3799C21.4701 59.449 21.6548 59.5609 21.8091 59.7079C21.9634 59.8549 22.0836 60.0334 22.1613 60.2311C22.239 60.4288 22.2724 60.6409 22.2591 60.8527C21.7519 69.1699 20.2381 104.788 31.7092 99.7537C36.2585 97.7734 34.7168 79.8635 34.1256 74.3345C34.1038 74.13 34.1256 73.9232 34.1895 73.7275C34.2533 73.5318 34.3579 73.3516 34.4965 73.1986C34.635 73.0455 34.8044 72.923 34.9938 72.839C35.1831 72.7549 35.3881 72.7112 35.5955 72.7107H51.0927C51.4646 72.7106 51.823 72.8495 52.0962 73.0999C52.3694 73.3502 52.5373 73.6935 52.5665 74.0613C53.1656 81.4557 54.8671 116.741 33.0472 117.731C-0.0400629 119.232 2.77579 70.5522 3.49074 62.2032C3.52114 61.8611 3.67177 61.5404 3.91633 61.2972C4.16088 61.054 4.48383 60.9036 4.82877 60.8725V60.8725Z" fill="#F7434E"/>
<path d="M74.7219 41.0774C74.5909 40.9011 74.5115 40.6924 74.4926 40.4742C74.4736 40.256 74.5159 40.0369 74.6147 39.841C74.7134 39.6451 74.8649 39.4801 75.0522 39.3642C75.2396 39.2483 75.4557 39.186 75.6765 39.1842C81.9153 39.2476 97.3606 37.4812 95.9227 18.2604C94.333 -3.19415 59.4164 0.659515 51.9954 1.72888C51.6203 1.78215 51.2802 1.97625 51.0453 2.27108C50.8104 2.56591 50.6987 2.93895 50.7332 3.31311C51.532 11.8324 55.6859 57.5733 56.0694 67.6887C56.0828 68.0673 56.244 68.4259 56.519 68.6889C56.7939 68.952 57.1611 69.0989 57.5432 69.0986H68.5989C68.9909 69.0986 69.3668 68.9442 69.6439 68.6694C69.921 68.3946 70.0767 68.0219 70.0767 67.6332V59.1021C70.0891 58.841 70.188 58.5912 70.358 58.3915C70.528 58.1917 70.7597 58.0532 71.0172 57.9972C71.2747 57.9413 71.5436 57.9711 71.7823 58.0821C72.021 58.193 72.2161 58.3789 72.3374 58.611L76.8148 68.2471C76.9327 68.5016 77.1219 68.7172 77.3598 68.8682C77.5977 69.0191 77.8744 69.0991 78.1568 69.0986H93.5901C93.8691 69.101 94.143 69.025 94.3803 68.8795C94.6175 68.734 94.8084 68.5249 94.9308 68.2763C95.0532 68.0277 95.1022 67.7499 95.072 67.4749C95.0418 67.1999 94.9338 66.9389 94.7604 66.7223L74.7219 41.0774ZM68.2075 19.3813C68.2067 18.369 68.5087 17.3793 69.0752 16.5373C69.6418 15.6953 70.4475 15.0388 71.3903 14.6509C72.3332 14.2629 73.3709 14.161 74.3722 14.358C75.3735 14.555 76.2933 15.0421 77.0154 15.7576C77.7375 16.473 78.2294 17.3848 78.4288 18.3775C78.6283 19.3703 78.5263 20.3993 78.1359 21.3346C77.7454 22.2699 77.084 23.0693 76.2353 23.6317C75.3866 24.1942 74.3887 24.4944 73.3679 24.4944C72.6904 24.4949 72.0195 24.363 71.3934 24.1063C70.7673 23.8496 70.1984 23.473 69.7192 22.9982C69.2399 22.5233 68.8598 21.9595 68.6004 21.3389C68.341 20.7183 68.2075 20.0531 68.2075 19.3813V19.3813Z" fill="#F7434E"/>
</svg>
