<svg width="375" height="129" viewBox="0 0 375 129" fill="none" xmlns="http://www.w3.org/2000/svg">
<g clip-path="url(#clip0_14_274)">
<path d="M50.6721 3.60066C49.9658 20.0409 40.1297 28.9515 40.1297 28.9515C57.5616 39.3732 57.5247 66.9543 57.2295 73.7909C57.2159 74.2102 57.0377 74.6079 56.7327 74.8996C56.4277 75.1914 56.0199 75.3544 55.5955 75.3542H38.211C37.7927 75.3534 37.3907 75.1941 37.0877 74.9091C36.7847 74.6241 36.6038 74.2351 36.5822 73.8222C35.2327 48.8361 30.2145 41.0615 27.3523 38.6489C27.1678 38.4908 26.9422 38.387 26.701 38.3492C26.4599 38.3113 26.2128 38.341 25.9879 38.4348C25.763 38.5287 25.5691 38.6829 25.4282 38.8801C25.2874 39.0772 25.2052 39.3094 25.1911 39.5504L23.9523 59.0025C23.9281 59.3858 23.7669 59.7481 23.4975 60.0249C23.2282 60.3017 22.8682 60.4749 22.4816 60.5136L4.81778 62.2593C4.59862 62.2807 4.37733 62.2583 4.16714 62.1933C3.95694 62.1283 3.76215 62.0221 3.59438 61.8811C3.42661 61.7401 3.28931 61.567 3.19068 61.3724C3.09204 61.1777 3.0341 60.9654 3.02029 60.7481L-0.000116173 12.0996C-0.0280827 11.7194 0.0817271 11.3418 0.309658 11.0344C0.537588 10.727 0.868759 10.5098 1.24389 10.4217L17.922 6.35199C18.1369 6.29916 18.3604 6.29004 18.5789 6.32519C18.7974 6.36034 19.0065 6.43903 19.1933 6.55647C19.3801 6.67392 19.5409 6.82767 19.6658 7.0084C19.7907 7.18912 19.8771 7.39305 19.9198 7.60781L22.4448 20.2754C22.4966 20.5344 22.6272 20.7717 22.819 20.9554C23.0108 21.1391 23.2548 21.2607 23.5184 21.3037C23.7819 21.3467 24.0525 21.3093 24.2939 21.1963C24.5353 21.0833 24.7361 20.9002 24.8695 20.6714L34.4737 4.11132C34.6025 3.89019 34.7823 3.70226 34.9985 3.56281C35.2146 3.42336 35.4611 3.33635 35.7177 3.30885L48.8588 1.92797C49.0928 1.90313 49.3294 1.92835 49.5526 2.00194C49.7758 2.07552 49.9804 2.19575 50.1524 2.35443C50.3244 2.51312 50.4599 2.70655 50.5496 2.92159C50.6393 3.13663 50.6811 3.36823 50.6721 3.60066Z" fill="#F7434E"/>
<path d="M62.9647 79.3249H75.0885C75.5039 79.3253 75.9036 79.4815 76.2069 79.762C76.5103 80.0425 76.6946 80.4264 76.7226 80.836L77.2497 89.1734C77.2665 89.4625 77.381 89.7376 77.5749 89.9547C77.7688 90.1717 78.0308 90.3181 78.3189 90.3704C78.607 90.4227 78.9045 90.3778 79.1637 90.2429C79.4229 90.1081 79.6288 89.8911 79.7483 89.6268L84.0549 80.2472C84.1844 79.9647 84.3935 79.7251 84.6571 79.557C84.9207 79.3888 85.2276 79.2992 85.5414 79.2988H104.07C104.31 79.2997 104.547 79.3525 104.764 79.4535C104.981 79.5545 105.173 79.7012 105.327 79.8835C105.481 80.0657 105.592 80.279 105.654 80.5084C105.715 80.7378 105.725 80.9777 105.683 81.2112C103.943 90.9034 96.1945 97.2971 92.9527 99.5951C92.7908 99.7101 92.6575 99.8599 92.5629 100.033C92.4684 100.207 92.415 100.399 92.4069 100.596C92.3987 100.793 92.4361 100.989 92.516 101.17C92.596 101.35 92.7165 101.51 92.8684 101.638C103.358 110.58 104.871 122.856 105.061 127.291C105.071 127.509 105.036 127.726 104.958 127.931C104.88 128.135 104.762 128.321 104.609 128.479C104.456 128.636 104.272 128.761 104.069 128.846C103.866 128.931 103.647 128.975 103.427 128.974H89.3683C88.9439 128.974 88.536 128.811 88.2311 128.519C87.9261 128.228 87.7479 127.83 87.7342 127.411C87.3705 113.341 82.1731 109.22 79.3635 108.005C79.1674 107.922 78.9536 107.887 78.7408 107.904C78.528 107.921 78.3227 107.99 78.1427 108.103C77.9628 108.217 77.8138 108.372 77.7086 108.556C77.6035 108.74 77.5455 108.946 77.5397 109.157L76.9124 127.437C76.8987 127.856 76.7205 128.254 76.4155 128.545C76.1105 128.837 75.7027 129 75.2783 129H53.7928C53.4857 129.003 53.184 128.92 52.9222 128.762C52.6604 128.603 52.4492 128.374 52.3128 128.102C52.1763 127.831 52.1201 127.526 52.1507 127.224C52.1812 126.922 52.2973 126.634 52.4855 126.395C56.439 121.121 63.9663 107.338 61.3359 81.0601C61.3192 80.8385 61.349 80.616 61.4233 80.4063C61.4976 80.1966 61.6148 80.0043 61.7677 79.8415C61.9205 79.6786 62.1057 79.5487 62.3117 79.4598C62.5177 79.3709 62.74 79.325 62.9647 79.3249Z" fill="#F7434E"/>
<path d="M4.45925 66.2717L21.9439 64.5469C22.1793 64.523 22.4172 64.55 22.641 64.6262C22.8648 64.7024 23.0691 64.8259 23.2397 64.9881C23.4103 65.1503 23.543 65.3473 23.6288 65.5653C23.7145 65.7834 23.7511 66.0174 23.7361 66.2509C23.1774 75.4376 21.5011 114.712 34.1889 109.141C39.223 106.937 37.5151 87.2141 36.8615 81.1122C36.8379 80.8876 36.8622 80.6605 36.9326 80.4457C37.0031 80.2308 37.1182 80.0329 37.2706 79.8646C37.4229 79.6963 37.6092 79.5614 37.8174 79.4684C38.0257 79.3755 38.2513 79.3266 38.4797 79.3249H55.6165C56.0284 79.3249 56.4253 79.4782 56.7281 79.7544C57.0309 80.0305 57.2174 80.4093 57.2505 80.8152C57.9094 88.965 59.7965 127.874 35.6385 128.964C-0.927938 130.615 2.19263 76.9435 2.99385 67.7412C3.02639 67.3657 3.19067 67.0133 3.45828 66.745C3.72588 66.4766 4.07996 66.3092 4.45925 66.2717Z" fill="#F7434E"/>
<path d="M81.7618 44.4434C81.6129 44.2504 81.5217 44.0199 81.4987 43.7783C81.4756 43.5366 81.5216 43.2934 81.6314 43.0762C81.7413 42.8591 81.9105 42.6768 82.1199 42.55C82.3293 42.4232 82.5705 42.3571 82.816 42.359C89.7161 42.432 106.8 40.4831 105.213 19.2906C103.437 -4.37194 64.8359 -0.119879 56.6128 1.04214C56.1974 1.09936 55.8203 1.31277 55.5601 1.63795C55.2999 1.96312 55.1766 2.37499 55.2159 2.78778C56.0804 12.1673 60.698 62.6241 61.1197 73.7649C61.132 74.1837 61.3091 74.5813 61.6132 74.8732C61.9173 75.1651 62.3246 75.3283 62.7485 75.3281H74.9777C75.4111 75.3281 75.8267 75.1579 76.1332 74.855C76.4396 74.5521 76.6118 74.1412 76.6118 73.7128V64.3176C76.6171 64.0239 76.723 63.7407 76.9123 63.5142C77.1016 63.2878 77.363 63.1315 77.6537 63.071C77.9445 63.0105 78.2474 63.0493 78.513 63.1811C78.7785 63.3129 78.991 63.5299 79.1156 63.7965L84.06 74.4214C84.1914 74.7021 84.401 74.94 84.6643 75.107C84.9276 75.2741 85.2337 75.3635 85.5465 75.3646H102.615C102.921 75.3656 103.221 75.2816 103.481 75.1221C103.742 74.9626 103.951 74.734 104.087 74.4624C104.222 74.1908 104.277 73.8871 104.246 73.586C104.215 73.2848 104.099 72.9984 103.911 72.7592L81.7618 44.4434ZM74.556 20.5047C74.555 19.3883 74.8889 18.2967 75.5156 17.368C76.1422 16.4393 77.0334 15.7151 78.0765 15.2872C79.1195 14.8593 80.2675 14.7468 81.3752 14.9639C82.483 15.1811 83.5007 15.7182 84.2996 16.5072C85.0985 17.2962 85.6427 18.3018 85.8634 19.3966C86.0841 20.4914 85.9714 21.6264 85.5394 22.6579C85.1075 23.6894 84.3758 24.5711 83.4369 25.1914C82.498 25.8117 81.3941 26.1428 80.2648 26.1428C78.7516 26.1428 77.3004 25.549 76.2299 24.4918C75.1595 23.4346 74.5574 22.0005 74.556 20.5047Z" fill="#F7434E"/>
<path d="M139.018 44.3183C139.697 45.1504 140.558 45.8187 141.537 46.2724C142.694 46.7935 143.956 47.0466 145.227 47.0123C146.593 47.0484 147.948 46.7569 149.175 46.1629C150.239 45.6422 151.147 44.8576 151.811 43.8858C152.451 42.953 152.851 41.8797 152.976 40.7593H149.413C149.348 41.198 149.192 41.6187 148.955 41.9953C148.719 42.3718 148.406 42.6961 148.037 42.9478C147.213 43.4961 146.236 43.775 145.243 43.7451C144.581 43.7557 143.923 43.6353 143.309 43.3908C142.758 43.1587 142.27 42.8017 141.885 42.3486C141.496 41.8791 141.202 41.3394 141.021 40.7593C140.819 40.1095 140.719 39.4329 140.726 38.7531C140.718 38.0647 140.818 37.3793 141.021 36.7209C141.199 36.1515 141.485 35.621 141.864 35.1576C142.234 34.7065 142.708 34.3492 143.245 34.1154C143.841 33.8623 144.484 33.738 145.132 33.7507C145.792 33.7397 146.447 33.8639 147.056 34.1154C147.605 34.3411 148.087 34.6995 148.459 35.1576C148.828 35.6254 149.068 36.1804 149.154 36.7678H152.739C152.65 35.588 152.248 34.4522 151.574 33.4745C150.905 32.5265 149.996 31.7684 148.938 31.2755C147.75 30.7246 146.45 30.4518 145.138 30.4783C143.911 30.4496 142.692 30.688 141.569 31.1765C140.609 31.6065 139.756 32.2398 139.071 33.0316C138.416 33.7982 137.919 34.683 137.605 35.637C137.288 36.5672 137.126 37.5422 137.125 38.5238V38.998C137.131 39.9124 137.284 40.82 137.579 41.6868C137.894 42.6426 138.382 43.5341 139.018 44.3183Z" fill="black"/>
<path d="M164.146 44.3183C164.872 45.1492 165.771 45.8157 166.781 46.2724C167.968 46.7607 169.241 47.0121 170.527 47.0121C171.812 47.0121 173.085 46.7607 174.272 46.2724C175.282 45.8157 176.181 45.1492 176.907 44.3183C177.587 43.55 178.123 42.6676 178.489 41.7129C178.824 40.842 179.003 39.9195 179.016 38.9876V38.5134C179.019 37.5274 178.84 36.5492 178.489 35.6266C178.128 34.6637 177.582 33.7789 176.881 33.0211C176.143 32.2273 175.246 31.5953 174.245 31.1661C171.888 30.235 169.26 30.235 166.903 31.1661C165.903 31.5958 165.005 32.2277 164.267 33.0211C163.577 33.7821 163.04 34.6664 162.686 35.6266C162.339 36.5505 162.16 37.5279 162.158 38.5134V38.9876C162.176 39.919 162.354 40.8407 162.686 41.7129C163.012 42.66 163.507 43.5422 164.146 44.3183ZM166.012 36.7365C166.224 36.1554 166.554 35.6234 166.982 35.1732C167.408 34.7201 167.93 34.3644 168.51 34.1311C169.811 33.6448 171.247 33.6448 172.548 34.1311C173.13 34.3644 173.653 34.72 174.082 35.1732C174.51 35.6245 174.841 36.1561 175.057 36.7365C175.289 37.382 175.403 38.063 175.394 38.7479C175.401 39.4045 175.29 40.0572 175.068 40.6759C174.856 41.2561 174.528 41.7879 174.103 42.2391C173.673 42.7012 173.148 43.0672 172.564 43.3126C171.92 43.5813 171.227 43.7144 170.529 43.7034C169.836 43.715 169.148 43.5818 168.51 43.3126C167.93 43.0658 167.409 42.6999 166.982 42.2391C166.555 41.7882 166.225 41.2564 166.012 40.6759C165.792 40.0565 165.681 39.4043 165.685 38.7479C165.678 38.064 165.789 37.3839 166.012 36.7365Z" fill="black"/>
<path d="M192.6 33.7872H192.9L198.878 46.6059H204.76V30.9316H201.418V43.7504H201.113L195.14 30.9316H189.295V46.6059H192.6V33.7872Z" fill="black"/>
<path d="M219.077 46.6059H222.635V34.0008H227.111V30.9316H214.623V34.0008H219.077V46.6059Z" fill="black"/>
<path d="M246.92 43.6826H240.426V40.0975H246.419V37.1795H240.426V33.8497H246.767V30.9316H240.426H239.993H236.952V46.6059H239.993H240.426H246.92V43.6826Z" fill="black"/>
<path d="M272.917 30.9316H269.575V43.7504H269.27L263.297 30.9316H257.452V46.6059H260.757V33.7872H261.057L267.029 46.6059H272.917V30.9316Z" fill="black"/>
<path d="M290.792 46.6059V34.0008H295.267V30.9316H282.78V34.0008H287.229V46.6059H290.792Z" fill="black"/>
<path d="M146.898 65.5004H146.487L142.861 56.6941H137.953V72.3684H141.211V60.3469L144.88 69.1897H148.269L151.959 60.2479V72.3684H155.48V56.6941H150.483L146.898 65.5004Z" fill="black"/>
<path d="M181.567 72.3684L176.133 56.6941H170.382L165.142 72.3684H168.705L169.96 68.4811H176.586L177.872 72.3684H181.567ZM170.904 65.563L172.838 59.5757H173.634L175.616 65.563H170.904Z" fill="black"/>
<path d="M206.695 56.6941H203.348V69.5128H203.047L197.075 56.6941H191.229V72.3684H194.534V59.5496H194.835L200.807 72.3684H206.695V56.6941Z" fill="black"/>
<path d="M227.801 68.4811L229.087 72.3684H232.777L227.348 56.6941H221.597L216.363 72.3684H219.921L221.175 68.4811H227.801ZM222.119 65.563L224.053 59.5757H224.849L226.831 65.563H222.119Z" fill="black"/>
<path d="M249.329 72.78C250.764 72.8104 252.188 72.5126 253.488 71.9098C254.648 71.3584 255.625 70.4906 256.302 69.4086V66.7458H257.604V64.2134H248.854V66.7458H253.018V68.0486C252.703 68.4257 252.319 68.7404 251.885 68.9761C251.099 69.3939 250.216 69.6022 249.323 69.5806C248.636 69.5882 247.954 69.4643 247.315 69.2158C246.739 68.9866 246.223 68.6301 245.807 68.1736C245.391 67.7053 245.077 67.1572 244.885 66.5635C244.666 65.8903 244.559 65.1863 244.569 64.4791C244.561 63.7997 244.658 63.123 244.859 62.4729C245.043 61.9009 245.338 61.3699 245.728 60.9097C246.109 60.4653 246.584 60.1094 247.12 59.8675C247.705 59.6174 248.338 59.4931 248.975 59.5028C249.642 59.4929 250.304 59.617 250.921 59.8675C251.465 60.09 251.949 60.4363 252.333 60.8784C252.701 61.3044 252.939 61.8248 253.018 62.3792H256.577C256.498 61.2254 256.101 60.1151 255.427 59.1693C254.751 58.2354 253.844 57.4889 252.792 57.0015C251.601 56.4608 250.302 56.1935 248.991 56.2199C247.793 56.196 246.604 56.4307 245.507 56.9078C244.542 57.336 243.683 57.9652 242.987 58.7524C242.323 59.5076 241.812 60.3813 241.48 61.3266C241.147 62.2587 240.977 63.2404 240.979 64.229V64.698C240.981 65.6778 241.15 66.6503 241.48 67.5744C241.816 68.5314 242.335 69.4158 243.008 70.1798C243.735 70.9919 244.636 71.6344 245.644 72.0609C246.808 72.5522 248.063 72.7972 249.329 72.78Z" fill="black"/>
<path d="M270.962 65.8652H276.96V62.9419H270.962V59.6174H277.308V56.6941H270.962H270.53H267.488V72.3684H270.53H270.962H277.456V69.4503H270.962V65.8652Z" fill="black"/>
<path d="M296.938 65.5004H296.527L292.901 56.6941H287.993V72.3684H291.251V60.3469L294.92 69.1897H298.309L301.999 60.2479V72.3684H305.52V56.6941H300.523L296.938 65.5004Z" fill="black"/>
<path d="M320.158 65.8652H326.151V62.9419H320.158V59.6174H326.499V56.6941H320.158H319.726H316.684V72.3684H319.726H320.158H326.652V69.4503H320.158V65.8652Z" fill="black"/>
<path d="M349.308 69.5128H349.002L343.03 56.6941H337.189V72.3684H340.489V59.5496H340.795L346.767 72.3684H352.65V56.6941H349.308V69.5128Z" fill="black"/>
<path d="M375 56.6941H362.512V59.7685H366.967V72.3684H370.525V59.7685H375V56.6941Z" fill="black"/>
<path d="M147.162 89.4495C146.19 89.0358 145.155 88.7857 144.099 88.7096L142.882 88.6002C142.301 88.6043 141.738 88.3987 141.3 88.0218C141.148 87.8695 141.027 87.6889 140.946 87.4903C140.864 87.2917 140.824 87.0792 140.826 86.8649C140.823 86.5282 140.912 86.197 141.084 85.9061C141.272 85.5997 141.55 85.3564 141.88 85.2079C142.292 85.0248 142.741 84.9374 143.193 84.9526C143.67 84.9354 144.143 85.0395 144.568 85.2548C144.917 85.4313 145.208 85.7024 145.406 86.0364C145.592 86.3531 145.69 86.7125 145.691 87.0786H149.175C149.199 86.1316 148.95 85.1975 148.458 84.3846C147.966 83.6047 147.253 82.985 146.408 82.6025C144.399 81.7694 142.139 81.7544 140.119 82.5608C139.274 82.9134 138.557 83.5119 138.063 84.277C137.57 85.0421 137.324 85.9374 137.357 86.8441C137.333 87.4697 137.447 88.093 137.69 88.6708C137.934 89.2485 138.303 89.7668 138.77 90.1895C139.828 91.083 141.159 91.5988 142.549 91.6537L143.746 91.7579C144.484 91.7792 145.207 91.9739 145.855 92.3259C146.057 92.453 146.223 92.6296 146.337 92.8386C146.45 93.0476 146.508 93.282 146.503 93.5192C146.504 93.8947 146.382 94.2605 146.155 94.5614C145.892 94.8919 145.539 95.1414 145.138 95.2805C144.6 95.4676 144.032 95.5559 143.461 95.541C142.845 95.5633 142.231 95.4568 141.659 95.2284C141.241 95.0578 140.884 94.7697 140.631 94.3998C140.409 94.0695 140.291 93.6813 140.293 93.2847H136.841C136.823 94.2367 137.086 95.1731 137.6 95.9787C138.147 96.7958 138.924 97.4369 139.835 97.8234C140.979 98.3072 142.217 98.5383 143.461 98.5008C144.652 98.5288 145.835 98.3178 146.94 97.8807C147.841 97.5184 148.62 96.9113 149.186 96.1298C149.72 95.3553 149.996 94.4355 149.977 93.4984C150.004 92.6134 149.742 91.7432 149.228 91.018C148.687 90.3281 147.976 89.7878 147.162 89.4495Z" fill="black"/>
<path d="M165.4 89.5486H164.71L161.473 82.4618H157.825L162.454 92.1853H163.234V98.1361H166.729V92.1853H167.514L171.768 82.4618H168.315L165.4 89.5486Z" fill="black"/>
<path d="M190.101 89.4495C189.129 89.0358 188.094 88.7857 187.039 88.7096L185.821 88.6002C185.24 88.6068 184.676 88.4008 184.24 88.0218C184.085 87.8705 183.963 87.6901 183.881 87.4914C183.799 87.2927 183.757 87.0797 183.76 86.8649C183.757 86.5282 183.847 86.197 184.018 85.9061C184.207 85.5997 184.484 85.3564 184.814 85.2079C185.226 85.0248 185.675 84.9374 186.127 84.9526C186.606 84.9355 187.081 85.0395 187.508 85.2548C187.855 85.4316 188.144 85.7028 188.341 86.0364C188.526 86.3531 188.625 86.7125 188.625 87.0786H192.099C192.123 86.1316 191.874 85.1975 191.382 84.3846C190.89 83.6047 190.177 82.985 189.332 82.6025C187.323 81.7694 185.063 81.7544 183.043 82.5608C182.199 82.9148 181.483 83.5138 180.991 84.2787C180.499 85.0436 180.253 85.9382 180.286 86.8441C180.261 87.4693 180.374 88.0924 180.617 88.6701C180.86 89.2478 181.227 89.7663 181.694 90.1895C182.751 91.083 184.083 91.5988 185.473 91.6537L186.67 91.7579C187.408 91.7792 188.131 91.9739 188.778 92.3259C188.981 92.453 189.147 92.6296 189.26 92.8386C189.374 93.0476 189.431 93.282 189.426 93.5192C189.428 93.8947 189.306 94.2605 189.079 94.5614C188.816 94.8919 188.463 95.1414 188.061 95.2805C187.525 95.4676 186.959 95.5559 186.39 95.541C185.772 95.5637 185.156 95.4572 184.582 95.2284C184.166 95.0565 183.809 94.7686 183.554 94.3998C183.332 94.0695 183.215 93.6813 183.217 93.2847H179.764C179.746 94.2367 180.01 95.1731 180.523 95.9787C181.072 96.7945 181.848 97.4353 182.758 97.8234C183.905 98.3071 185.144 98.5383 186.39 98.5008C187.579 98.5288 188.76 98.3178 189.864 97.8807C190.765 97.5184 191.543 96.9113 192.11 96.1298C192.645 95.3559 192.924 94.436 192.905 93.4984C192.931 92.6128 192.667 91.7428 192.152 91.018C191.616 90.3292 190.91 89.7889 190.101 89.4495Z" fill="black"/>
<path d="M201.223 85.531H205.672V98.1361H209.236V85.531H213.711V82.4618H201.223V85.531Z" fill="black"/>
<path d="M227.026 91.6277H233.02V88.7096H227.026V85.3799H233.368V82.4618H227.026H226.589H223.552V98.1361H226.589H227.026H233.52V95.2128H227.026V91.6277Z" fill="black"/>
<path d="M253.003 91.2629H252.592L248.96 82.4618H244.052V98.1361H247.31V86.1094L250.984 94.9574H254.368L258.063 86.0104V98.1361H261.579V82.4618H256.587L253.003 91.2629Z" fill="black"/>
</g>
<defs>
<clipPath id="clip0_14_274">
<rect width="375" height="129" fill="white"/>
</clipPath>
</defs>
</svg>
